<svg xmlns="http://www.w3.org/2000/svg" viewBox="0 0 600 750" font-family="sans-serif">
  <defs>
    <linearGradient id="g4bg" x1="0" y1="0" x2="0" y2="1">
      <stop offset="0" stop-color="#FDFBF6"/><stop offset="1" stop-color="#F2E8D8"/>
    </linearGradient>
    <linearGradient id="g4table" x1="0" y1="0" x2="0" y2="1">
      <stop offset="0" stop-color="#DEB878"/><stop offset="1" stop-color="#C09050"/>
    </linearGradient>
    <linearGradient id="g4bowl" x1="0" y1="0" x2="1" y2="1">
      <stop offset="0" stop-color="#C87848"/><stop offset="1" stop-color="#A05830"/>
    </linearGradient>
    <linearGradient id="g4plate" x1="0" y1="0" x2="0" y2="1">
      <stop offset="0" stop-color="#F8F2E8"/><stop offset="1" stop-color="#EDE4D4"/>
    </linearGradient>
  </defs>

  <!-- 背景 -->
  <rect width="600" height="750" fill="url(#g4bg)"/>

  <!-- テーブル面（上から見た俯瞰と側面の混合・温かい和の雰囲気） -->
  <ellipse cx="300" cy="640" rx="340" ry="100" fill="url(#g4table)"/>
  <ellipse cx="300" cy="620" rx="340" ry="100" fill="#E8C88A"/>
  <ellipse cx="300" cy="620" rx="340" ry="100" fill="none" stroke="#C09050" stroke-width="5"/>
  <!-- テーブルの木目 -->
  <path d="M0 608 q150 -20 300 0 q150 20 300 0" stroke="#C8A060" stroke-width="1.5" fill="none" opacity=".4"/>
  <path d="M20 628 q140 -16 280 0 q140 16 280 0" stroke="#C8A060" stroke-width="1.5" fill="none" opacity=".4"/>

  <!-- テーブルマット（和紙風） -->
  <ellipse cx="300" cy="605" rx="250" ry="72" fill="#F8EED8" opacity=".7"/>

  <!-- 奥のランチョンマット（別客分） -->
  <ellipse cx="300" cy="220" rx="240" ry="60" fill="#F4E8D0" opacity=".5"/>

  <!-- ===== メイン器（大きな一枚皿・中央） ===== -->
  <!-- 大皿の影 -->
  <ellipse cx="300" cy="545" rx="135" ry="30" fill="#C09050" opacity=".25"/>
  <!-- 大皿 -->
  <ellipse cx="300" cy="530" rx="130" ry="28" fill="url(#g4plate)"/>
  <ellipse cx="300" cy="518" rx="125" ry="25" fill="#F8F2EC"/>
  <ellipse cx="300" cy="516" rx="120" ry="22" fill="#FBF7F2"/>
  <!-- 皿の縁飾り（青い線） -->
  <ellipse cx="300" cy="515" rx="120" ry="22" fill="none" stroke="#3A7CA5" stroke-width="3" opacity=".6"/>
  <ellipse cx="300" cy="515" rx="112" ry="19" fill="none" stroke="#3A7CA5" stroke-width="1.5" opacity=".3"/>

  <!-- 焼き鮭（中央大皿に） -->
  <path d="M228 512 q18 -36 72 -36 q54 0 72 36 q-18 24 -72 24 q-54 0 -72 -24" fill="#E87840" opacity=".85"/>
  <!-- 焼き目の筋 -->
  <path d="M240 500 q60 -12 118 0" stroke="#C05818" stroke-width="2.5" fill="none" opacity=".55"/>
  <path d="M244 510 q55 -10 110 0" stroke="#C05818" stroke-width="2" fill="none" opacity=".4"/>
  <path d="M248 518 q50 -8 102 0" stroke="#C05818" stroke-width="1.5" fill="none" opacity=".35"/>
  <!-- 大根おろし（右) -->
  <ellipse cx="358" cy="505" rx="22" ry="13" fill="#FAFAF5" opacity=".9"/>
  <!-- レモン（左） -->
  <ellipse cx="244" cy="508" rx="15" ry="9" fill="#F4C95B" opacity=".9"/>
  <!-- みょうが飾り -->
  <path d="M290 490 q6 -8 14 -5 q2 5 -6 8 q-8 1 -8 -3" fill="#E06080" opacity=".7"/>
  <!-- 湯気 -->
  <path d="M268 490 q5 -20 0 -36" stroke="#E8A87C" stroke-width="2.5" fill="none" stroke-linecap="round" opacity=".6"/>
  <path d="M300 482 q5 -20 0 -36" stroke="#E8A87C" stroke-width="2.5" fill="none" stroke-linecap="round" opacity=".6"/>
  <path d="M332 488 q5 -20 0 -36" stroke="#E8A87C" stroke-width="2.5" fill="none" stroke-linecap="round" opacity=".6"/>

  <!-- ===== ご飯茶碗（左） ===== -->
  <ellipse cx="158" cy="545" rx="60" ry="18" fill="#D4784A" opacity=".25"/>
  <path d="M100 520 q0 36 58 38 q58 2 58 -38 q-2 -44 -58 -44 q-56 0 -58 44" fill="#E8896A"/>
  <ellipse cx="158" cy="476" rx="56" ry="14" fill="#F5ECD8"/>
  <!-- ご飯の表面 -->
  <ellipse cx="158" cy="474" rx="50" ry="11" fill="#FAFAF2"/>
  <ellipse cx="145" cy="468" rx="16" ry="7" fill="#FAFAF8" opacity=".8"/>
  <ellipse cx="170" cy="466" rx="12" ry="6" fill="#FAFAF5" opacity=".7"/>
  <ellipse cx="158" cy="460" rx="20" ry="6" fill="#F8F5E8" opacity=".6"/>
  <!-- 艶 -->
  <ellipse cx="140" cy="490" rx="14" ry="6" fill="#fff" opacity=".3"/>
  <!-- 湯気 -->
  <path d="M140 462 q4 -16 0 -28" stroke="#E8A87C" stroke-width="2" fill="none" stroke-linecap="round" opacity=".65"/>
  <path d="M158 456 q4 -16 0 -28" stroke="#E8A87C" stroke-width="2" fill="none" stroke-linecap="round" opacity=".65"/>
  <path d="M176 462 q4 -16 0 -28" stroke="#E8A87C" stroke-width="2" fill="none" stroke-linecap="round" opacity=".65"/>

  <!-- ===== 味噌汁の椀（右） ===== -->
  <ellipse cx="442" cy="545" rx="58" ry="17" fill="#B86840" opacity=".25"/>
  <path d="M386 520 q0 34 56 36 q56 2 56 -36 q-2 -42 -56 -42 q-54 0 -56 42" fill="#C87848"/>
  <ellipse cx="442" cy="478" rx="54" ry="13" fill="#D48C5A"/>
  <!-- 汁の表面 -->
  <ellipse cx="442" cy="476" rx="44" ry="9" fill="#D48C5A" opacity=".6"/>
  <!-- 具（豆腐） -->
  <rect x="428" y="470" width="18" height="12" rx="2" fill="#FAFAF0" opacity=".9"/>
  <!-- わかめ -->
  <path d="M452 472 q6 -5 10 0 q3 5 -5 7 q-5 0 -5 -7" fill="#4A7860" opacity=".75"/>
  <!-- ねぎ -->
  <line x1="432" y1="470" x2="438" y2="464" stroke="#7FB069" stroke-width="2.5"/>
  <line x1="448" y1="472" x2="454" y2="466" stroke="#7FB069" stroke-width="2.5"/>
  <!-- 椀のふたの取っ手 -->
  <ellipse cx="442" cy="476" rx="10" ry="6" fill="#C87848" opacity=".65"/>
  <!-- 艶 -->
  <ellipse cx="422" cy="494" rx="12" ry="5" fill="#fff" opacity=".25"/>
  <!-- 湯気 -->
  <path d="M425 468 q5 -18 1 -32" stroke="#D48C5A" stroke-width="2.5" fill="none" stroke-linecap="round" opacity=".7"/>
  <path d="M442 462 q5 -18 1 -32" stroke="#D48C5A" stroke-width="2.5" fill="none" stroke-linecap="round" opacity=".7"/>
  <path d="M459 466 q5 -18 1 -32" stroke="#D48C5A" stroke-width="2.5" fill="none" stroke-linecap="round" opacity=".7"/>

  <!-- ===== 副菜小鉢（中央やや上） ===== -->
  <ellipse cx="300" cy="355" rx="72" ry="20" fill="#88B0A0" opacity=".25"/>
  <path d="M230 332 q0 34 70 36 q70 2 70 -36 q-2 -42 -70 -42 q-68 0 -70 42" fill="#A6C9BB"/>
  <ellipse cx="300" cy="290" rx="68" ry="16" fill="#88B0A0"/>
  <!-- 中身（煮物・根菜） -->
  <ellipse cx="300" cy="288" rx="58" ry="12" fill="#6A8870" opacity=".6"/>
  <!-- にんじん -->
  <ellipse cx="284" cy="284" rx="16" ry="8" fill="#E87840" opacity=".8"/>
  <!-- 里芋 -->
  <ellipse cx="314" cy="282" rx="14" ry="8" fill="#D0C0A0" opacity=".8"/>
  <!-- こんにゃく -->
  <rect x="294" y="278" width="12" height="10" rx="4" fill="#9090A0" opacity=".7"/>
  <!-- 三つ葉 -->
  <path d="M295 278 q5 -8 10 -6" stroke="#7FB069" stroke-width="2" fill="none"/>
  <circle cx="305" cy="270" r="4" fill="#86B96B" opacity=".8"/>
  <!-- 艶 -->
  <ellipse cx="275" cy="306" rx="18" ry="6" fill="#fff" opacity=".25"/>
  <!-- 湯気 -->
  <path d="M285 282 q4 -16 0 -28" stroke="#88B0A0" stroke-width="2" fill="none" stroke-linecap="round" opacity=".6"/>
  <path d="M300 276 q4 -16 0 -28" stroke="#88B0A0" stroke-width="2" fill="none" stroke-linecap="round" opacity=".6"/>
  <path d="M315 280 q4 -16 0 -28" stroke="#88B0A0" stroke-width="2" fill="none" stroke-linecap="round" opacity=".6"/>

  <!-- ===== 漬物（左上小皿） ===== -->
  <ellipse cx="148" cy="332" rx="52" ry="13" fill="#D4C0A0" opacity=".3"/>
  <ellipse cx="148" cy="320" rx="50" ry="11" fill="#F0E8D8"/>
  <ellipse cx="148" cy="318" rx="45" ry="9" fill="#F4EDE0"/>
  <!-- 漬物 -->
  <ellipse cx="138" cy="316" rx="14" ry="7" fill="#E0785A" opacity=".7"/>
  <ellipse cx="158" cy="314" rx="12" ry="6" fill="#9ABA58" opacity=".75"/>
  <ellipse cx="145" cy="310" rx="10" ry="5" fill="#E0785A" opacity=".65"/>

  <!-- ===== デザート（右上・水ようかん） ===== -->
  <ellipse cx="452" cy="332" rx="52" ry="13" fill="#A0C0D8" opacity=".3"/>
  <ellipse cx="452" cy="320" rx="50" ry="11" fill="#F0E8D8"/>
  <!-- 水ようかん -->
  <rect x="420" y="306" width="64" height="22" rx="6" fill="#6A5090" opacity=".6"/>
  <rect x="422" y="308" width="60" height="18" rx="5" fill="#8060B0" opacity=".5"/>
  <!-- 艶 -->
  <rect x="426" y="310" width="30" height="5" rx="3" fill="#fff" opacity=".3"/>

  <!-- お箸とはし置き -->
  <rect x="100" y="580" width="320" height="7" rx="3.5" fill="#6B3A2A" transform="rotate(3 100 580)"/>
  <rect x="104" y="590" width="315" height="7" rx="3.5" fill="#8B5A3A" transform="rotate(3 104 590)"/>
  <!-- はし置き -->
  <rect x="95" y="593" width="34" height="12" rx="5" fill="#88B0A0"/>

  <!-- 緑茶（右） -->
  <ellipse cx="530" cy="540" rx="40" ry="13" fill="#7FB069" opacity=".2"/>
  <path d="M492 527 q0 26 38 27 q38 1 38 -27 q-1 -32 -38 -32 q-37 0 -38 32" fill="#9CC77E" opacity=".55"/>
  <ellipse cx="530" cy="495" rx="37" ry="11" fill="#7FB069" opacity=".45"/>
  <!-- 茶の表面 -->
  <ellipse cx="530" cy="494" rx="30" ry="8" fill="#B8D88A" opacity=".7"/>
  <!-- 湯気 -->
  <path d="M516 488 q5 -14 1 -24" stroke="#7FB069" stroke-width="2" fill="none" stroke-linecap="round" opacity=".7"/>
  <path d="M530 482 q5 -14 1 -24" stroke="#7FB069" stroke-width="2" fill="none" stroke-linecap="round" opacity=".7"/>
  <path d="M544 486 q5 -14 1 -24" stroke="#7FB069" stroke-width="2" fill="none" stroke-linecap="round" opacity=".7"/>

  <!-- テーブル上の花（和の一輪挿し） -->
  <rect x="60" y="480" width="8" height="60" fill="#8B6B4A" opacity=".7"/>
  <ellipse cx="64" cy="476" rx="12" ry="8" fill="#F4A6A0" opacity=".8"/>
  <ellipse cx="56" cy="468" rx="10" ry="7" fill="#F4C95B" opacity=".8"/>
  <ellipse cx="72" cy="468" rx="9" ry="7" fill="#E8A87C" opacity=".8"/>
  <!-- 花瓶 -->
  <path d="M50 540 q14 -30 28 0" fill="#88B0A0" opacity=".8"/>
  <ellipse cx="64" cy="540" rx="14" ry="5" fill="#6FA890" opacity=".7"/>

  <!-- 壁のアクセント（左上に和の模様） -->
  <rect x="0" y="0" width="600" height="120" fill="#FBF6EE" opacity=".4"/>
  <!-- 和の窓格子イメージ（薄く） -->
  <line x1="0" y1="115" x2="600" y2="115" stroke="#D4BCA0" stroke-width="3" opacity=".4"/>
</svg>
